<?xml version="1.0" encoding="iso-8859-1"?>
<!-- Generator: Adobe Illustrator 19.0.0, SVG Export Plug-In . SVG Version: 6.00 Build 0)  -->
<svg xmlns="http://www.w3.org/2000/svg" xmlns:xlink="http://www.w3.org/1999/xlink" version="1.1" id="Capa_1" x="0px" y="0px" viewBox="0 0 512 512" style="enable-background:new 0 0 512 512;" xml:space="preserve" width="512px" height="512px">
<g>
	<g>
		<path d="M509.803,250.697l-248.5-248.5c-2.929-2.929-7.678-2.929-10.606,0l-248.5,248.5c-2.145,2.145-2.787,5.371-1.626,8.173    c1.161,2.803,3.896,4.63,6.929,4.63H30v241c0,4.142,3.358,7.5,7.5,7.5h437c4.142,0,7.5-3.358,7.5-7.5v-241h22.5    c3.034,0,5.768-1.827,6.929-4.63C512.59,256.067,511.948,252.842,509.803,250.697z M323.5,497h-135v-15h135V497z M323.5,467h-135    V263h135V467z M467,497H338.5v-75H467V497z M474.5,248.5c-4.142,0-7.5,3.358-7.5,7.5v151H338.5V255.5c0-4.142-3.358-7.5-7.5-7.5    H181c-4.142,0-7.5,3.358-7.5,7.5V407h-49.25c-4.142,0-7.5,3.358-7.5,7.5c0,4.142,3.358,7.5,7.5,7.5h49.25v75H45v-75h49.25    c4.142,0,7.5-3.358,7.5-7.5c0-4.142-3.358-7.5-7.5-7.5H45V256c0-4.142-3.358-7.5-7.5-7.5H25.607L256,18.107L486.394,248.5H474.5z" fill="#888888"/>
	</g>
</g>
<g>
	<g>
		<path d="M301,350c-4.142,0-7.5,3.358-7.5,7.5v15c0,4.142,3.358,7.5,7.5,7.5c4.142,0,7.5-3.358,7.5-7.5v-15    C308.5,353.358,305.142,350,301,350z" fill="#888888"/>
	</g>
</g>
<g>
</g>
<g>
</g>
<g>
</g>
<g>
</g>
<g>
</g>
<g>
</g>
<g>
</g>
<g>
</g>
<g>
</g>
<g>
</g>
<g>
</g>
<g>
</g>
<g>
</g>
<g>
</g>
<g>
</g>
</svg>
