<?xml version="1.0" encoding="iso-8859-1"?>
<!-- Generator: Adobe Illustrator 19.0.0, SVG Export Plug-In . SVG Version: 6.00 Build 0)  -->
<svg xmlns="http://www.w3.org/2000/svg" xmlns:xlink="http://www.w3.org/1999/xlink" version="1.1" id="Capa_1" x="0px" y="0px" viewBox="0 0 512 512" style="enable-background:new 0 0 512 512;" xml:space="preserve" width="512px" height="512px">
<g>
	<g>
		<path d="M256,0C152.612,0,68.5,84.112,68.5,187.5c0,38.607,11.653,75.694,33.673,107.215l147.654,214.044    c1.4,2.029,3.708,3.241,6.173,3.241c2.465,0,4.773-1.212,6.173-3.241l147.628-214.007C431.847,263.194,443.5,226.107,443.5,187.5    C443.5,84.112,359.388,0,256,0z M397.48,286.197L256,491.292L114.495,286.161C94.218,257.135,83.5,223.019,83.5,187.5    C83.5,92.383,160.883,15,256,15s172.5,77.383,172.5,172.5C428.5,223.019,417.782,257.135,397.48,286.197z" fill="#888888"/>
	</g>
</g>
<g>
	<g>
		<path d="M256,60c-70.304,0-127.5,57.196-127.5,127.5S185.696,315,256,315s127.5-57.196,127.5-127.5S326.304,60,256,60z M256,300    c-62.033,0-112.5-50.467-112.5-112.5S193.967,75,256,75s112.5,50.467,112.5,112.5S318.033,300,256,300z" fill="#888888"/>
	</g>
</g>
<g>
	<g>
		<path d="M256.625,90.624c-53.762,0-97.5,43.738-97.5,97.5c0,20.398,6.235,39.935,18.03,56.499    c2.402,3.374,7.086,4.161,10.46,1.759c3.374-2.403,4.162-7.086,1.759-10.46c-9.976-14.008-15.249-30.536-15.249-47.797    c0-45.491,37.009-82.5,82.5-82.5s82.5,37.009,82.5,82.5c0,45.491-37.009,82.5-82.5,82.5c-17.261,0-33.789-5.273-47.797-15.249    c-3.375-2.402-8.058-1.615-10.46,1.759c-2.403,3.374-1.615,8.057,1.759,10.46c16.563,11.795,36.101,18.03,56.499,18.03    c53.762,0,97.5-43.738,97.5-97.5C354.126,134.363,310.386,90.624,256.625,90.624z" fill="#888888"/>
	</g>
</g>
<g>
	<g>
		<path d="M256.624,180.624c-4.136,0-7.5,3.365-7.5,7.5c0,4.136,3.364,7.5,7.5,7.5c4.136,0,7.5-3.364,7.5-7.5    C264.124,183.989,260.759,180.624,256.624,180.624z" fill="#888888"/>
	</g>
</g>
<g>
	<g>
		<path d="M226.624,180.624c-4.136,0-7.5,3.365-7.5,7.5c0,4.136,3.364,7.5,7.5,7.5c4.136,0,7.5-3.364,7.5-7.5    C234.124,183.989,230.759,180.624,226.624,180.624z" fill="#888888"/>
	</g>
</g>
<g>
	<g>
		<path d="M286.624,180.624c-4.136,0-7.5,3.365-7.5,7.5c0,4.136,3.364,7.5,7.5,7.5s7.5-3.364,7.5-7.5    C294.124,183.989,290.759,180.624,286.624,180.624z" fill="#888888"/>
	</g>
</g>
<g>
</g>
<g>
</g>
<g>
</g>
<g>
</g>
<g>
</g>
<g>
</g>
<g>
</g>
<g>
</g>
<g>
</g>
<g>
</g>
<g>
</g>
<g>
</g>
<g>
</g>
<g>
</g>
<g>
</g>
</svg>
