<?xml version="1.0"?>
<svg xmlns="http://www.w3.org/2000/svg" height="512px" viewBox="0 -31 480 479" width="512px"><path d="m456 56.5h-24v-56h-432v224h140.199219c7.285156 20.4375 23.363281 36.515625 43.800781 43.800781v116.199219h144v32h48v-80h-144v-68.199219c20.4375-7.285156 36.515625-23.363281 43.800781-43.800781h156.199219v-56h24c13.253906 0 24-10.746094 24-24v-64c0-13.253906-10.746094-24-24-24zm-96 296v48h-16v-32h-144v-96.472656c5.316406.628906 10.683594.628906 16 0v80.472656zm-96-152c0 30.929688-25.070312 56-56 56s-56-25.070312-56-56v-40h112zm-96-56v-40c0-4.417969 3.582031-8 8-8s8 3.582031 8 8v40zm64 0v-40c0-4.417969 3.582031-8 8-8s8 3.582031 8 8v40zm32 0v-40c0-13.253906-10.746094-24-24-24s-24 10.746094-24 24v40h-16v-40c0-13.253906-10.746094-24-24-24s-24 10.746094-24 24v40h-16v32h-88v-128h280v128h-48v-32zm152 64h-136.472656c.308594-2.65625.464844-5.328125.472656-8v-8h120v-160h-360c-4.417969 0-8 3.582031-8 8v144c0 4.417969 3.582031 8 8 8h96v8c.007812 2.671875.164062 5.34375.472656 8h-120.472656v-192h400zm-72-32v-128h40v128zm120-32c0 4.417969-3.582031 8-8 8h-24v-80h24c4.417969 0 8 3.582031 8 8zm0 0" fill="#757575"/></svg>
