<?xml version="1.0"?>
<svg xmlns="http://www.w3.org/2000/svg" height="512px" viewBox="-112 0 480 480" width="512px"><path d="m32 0v128h-32v168c.0351562 30.914062 25.085938 55.964844 56 56h24v8c0 13.253906 10.746094 24 24 24v96h48v-96c13.253906 0 24-10.746094 24-24v-8h24c30.914062-.035156 55.964844-25.085938 56-56v-168h-32v-128zm16 16h160v112h-160zm88 448h-16v-80h16zm24-104c0 4.417969-3.582031 8-8 8h-48c-4.417969 0-8-3.582031-8-8v-8h64zm80-216v152c-.027344 22.082031-17.917969 39.972656-40 40h-144c-22.082031-.027344-39.972656-17.917969-40-40v-152zm0 0" fill="#757575"/><path d="m64 104h48v-64h-48zm16-48h16v32h-16zm0 0" fill="#757575"/><path d="m144 104h48v-64h-48zm16-48h16v32h-16zm0 0" fill="#757575"/><path d="m32 160v48h16v-32h32v-16zm0 0" fill="#757575"/><path d="m96 160h32v16h-32zm0 0" fill="#757575"/></svg>
