<?xml version="1.0"?>
<svg xmlns="http://www.w3.org/2000/svg" height="512px" viewBox="0 -31 480 479" width="512px"><path d="m344 320.5c13.253906 0 24-10.746094 24-24v-176c0-13.253906-10.746094-24-24-24h-208c-13.253906 0-24 10.746094-24 24v176c0 13.253906 10.746094 24 24 24zm-216-24v-176c0-4.417969 3.582031-8 8-8h208c4.417969 0 8 3.582031 8 8v176c0 4.417969-3.582031 8-8 8h-208c-4.417969 0-8-3.582031-8-8zm0 0" fill="#757575"/><path d="m88 384.5h48v-32h16v32h48v-32h16v32h48v-32h16v32h48v-32h16v32h48v-32h16v-288h-16v-32h-48v32h-16v-32h-48v32h-16v-32h-48v32h-16v-32h-48v32h-16v-32h-48v32h-16v288h16zm32-16h-16v-16h16zm64 0h-16v-16h16zm64 0h-16v-16h16zm64 0h-16v-16h16zm64 0h-16v-16h16zm-16-320h16v16h-16zm-64 0h16v16h-16zm-64 0h16v16h-16zm-64 0h16v16h-16zm-64 0h16v16h-16zm-16 32h304v256h-304zm0 0" fill="#757575"/><path d="m0 176.5h8c17.671875 0 32 14.328125 32 32s-14.328125 32-32 32h-8v176h480v-176h-8c-17.671875 0-32-14.328125-32-32s14.328125-32 32-32h8v-176h-480zm16-160h448v144.664062c-23.113281 3.886719-40.042969 23.898438-40.042969 47.335938s16.929688 43.449219 40.042969 47.335938v144.664062h-448v-144.664062c23.113281-3.886719 40.042969-23.898438 40.042969-47.335938s-16.929688-43.449219-40.042969-47.335938zm0 0" fill="#757575"/><path d="m144 128.5h16v16h-16zm0 0" fill="#757575"/><path d="m320 128.5h16v16h-16zm0 0" fill="#757575"/><path d="m320 272.5h16v16h-16zm0 0" fill="#757575"/><path d="m144 272.5h16v16h-16zm0 0" fill="#757575"/></svg>
