<?xml version="1.0" encoding="iso-8859-1"?>
<!-- Generator: Adobe Illustrator 19.0.0, SVG Export Plug-In . SVG Version: 6.00 Build 0)  -->
<svg xmlns="http://www.w3.org/2000/svg" xmlns:xlink="http://www.w3.org/1999/xlink" version="1.1" id="Capa_1" x="0px" y="0px" viewBox="0 0 342.4 342.4" style="enable-background:new 0 0 342.4 342.4;" xml:space="preserve" width="512px" height="512px">
<g>
	<g>
		<g>
			<path d="M200.4,58.4c6.4,0,11.6-5.2,11.6-11.6c0-6.4-5.2-11.6-11.6-11.6c-6.4,0-11.6,5.2-11.6,11.6     C188.8,53.2,194,58.4,200.4,58.4z" fill="#757575"/>
			<path d="M171.2,92.4c-43.6,0-78.8,35.2-78.8,78.8c0,43.6,35.2,78.8,78.8,78.8c43.6,0,78.8-35.2,78.8-78.8     C250,127.6,214.8,92.4,171.2,92.4z M171.2,236c-35.6,0-64.8-29.2-64.8-64.8c0-35.6,29.2-64.8,64.8-64.8     c35.6,0,64.8,29.2,64.8,64.8C236,206.8,206.8,236,171.2,236z" fill="#757575"/>
			<path d="M171.2,0C76.8,0,0,76.8,0,171.2s76.8,171.2,171.2,171.2s171.2-76.8,171.2-171.2S265.6,0,171.2,0z M171.2,328     c-86.4,0-156.8-70.4-156.8-156.8S84.8,14.4,171.2,14.4S328,84.8,328,171.2S257.6,328,171.2,328z" fill="#757575"/>
			<path d="M236.4,58.4c-3.2-2-7.6-0.8-9.6,2.4s-0.8,7.6,2.4,9.6c36,21.2,58,59.6,58,100.8c0,4,3.2,7.2,7.2,7.2s7.2-3.2,7.2-7.2     C301.6,124.8,276.4,81.6,236.4,58.4z" fill="#757575"/>
			<path d="M171.2,123.2c-26.4,0-48,21.6-48,48c0,26.4,21.6,48,48,48c26.4,0,48-21.6,48-48C219.2,144.8,197.6,123.2,171.2,123.2z      M171.2,204.8c-18.8,0-33.6-15.2-33.6-33.6c0-18.4,15.2-33.6,33.6-33.6s33.6,15.2,33.6,33.6S190,204.8,171.2,204.8z" fill="#757575"/>
		</g>
	</g>
</g>
<g>
</g>
<g>
</g>
<g>
</g>
<g>
</g>
<g>
</g>
<g>
</g>
<g>
</g>
<g>
</g>
<g>
</g>
<g>
</g>
<g>
</g>
<g>
</g>
<g>
</g>
<g>
</g>
<g>
</g>
</svg>
