<?xml version="1.0"?>
<svg xmlns="http://www.w3.org/2000/svg" height="512px" viewBox="0 -9 464 464" width="512px"><path d="m164.363281 233.945312v-41.890624c0-4.417969-3.582031-8-8-8h-23.417969v-23.417969c0-4.417969-3.582031-8-8-8h-41.890624c-4.417969 0-8 3.582031-8 8v23.417969h-23.417969c-4.417969 0-8 3.582031-8 8v41.890624c0 4.417969 3.582031 8 8 8h23.417969v23.417969c0 4.417969 3.582031 8 8 8h41.890624c4.417969 0 8-3.582031 8-8v-23.417969h23.417969c4.417969 0 8-3.582031 8-8zm-73.308593-65.308593h25.890624v20.105469l-12.945312 12.945312-12.945312-12.945312zm-31.417969 31.417969h20.105469l12.945312 12.945312-12.945312 12.945312h-20.105469zm57.308593 57.308593h-25.890624v-20.105469l12.945312-12.945312 12.945312 12.945312zm31.417969-31.417969h-20.105469l-12.945312-12.945312 12.945312-12.945312h20.105469zm0 0" fill="#757575"/><path d="m345.558594 213c0-12.660156-10.300782-22.960938-22.960938-22.960938s-22.960937 10.300782-22.960937 22.960938 10.300781 22.960938 22.960937 22.960938 22.960938-10.300782 22.960938-22.960938zm-22.960938 6.960938c-3.839844 0-6.960937-3.121094-6.960937-6.960938s3.121093-6.960938 6.960937-6.960938 6.960938 3.121094 6.960938 6.960938-3.121094 6.960938-6.960938 6.960938zm0 0" fill="#757575"/><path d="m397.402344 190.039062c-12.660156 0-22.960938 10.300782-22.960938 22.960938s10.300782 22.960938 22.960938 22.960938 22.960937-10.300782 22.960937-22.960938-10.300781-22.960938-22.960937-22.960938zm0 29.921876c-3.839844 0-6.960938-3.121094-6.960938-6.960938s3.121094-6.960938 6.960938-6.960938 6.960937 3.121094 6.960937 6.960938-3.121093 6.960938-6.960937 6.960938zm0 0" fill="#757575"/><path d="m360 227.441406c-12.660156 0-22.960938 10.300782-22.960938 22.960938s10.300782 22.960937 22.960938 22.960937 22.960938-10.300781 22.960938-22.960937-10.300782-22.960938-22.960938-22.960938zm0 29.921875c-3.839844 0-6.960938-3.121093-6.960938-6.960937s3.121094-6.960938 6.960938-6.960938 6.960938 3.121094 6.960938 6.960938-3.121094 6.960937-6.960938 6.960937zm0 0" fill="#757575"/><path d="m360 198.558594c12.660156 0 22.960938-10.300782 22.960938-22.960938s-10.300782-22.960937-22.960938-22.960937-22.960938 10.300781-22.960938 22.960937 10.300782 22.960938 22.960938 22.960938zm0-29.921875c3.839844 0 6.960938 3.121093 6.960938 6.960937s-3.121094 6.960938-6.960938 6.960938-6.960938-3.121094-6.960938-6.960938 3.121094-6.960937 6.960938-6.960937zm0 0" fill="#757575"/><path d="m400 117.445312v-24.445312c0-4.417969-3.582031-8-8-8h-64c-4.417969 0-8 3.582031-8 8v24.042969c-4.398438 1.84375-8.6875 3.980469-12.824219 6.433593-19.304687 11.464844-41.972656 17.523438-65.550781 17.523438h-1.625v-42c0-17.644531 14.355469-32 32-32h31.539062c18.472657 0 33.5-15.027344 33.5-33.5s-15.027343-33.5-33.5-33.5h-129.539062c-4.417969 0-8 3.582031-8 8s3.582031 8 8 8h129.539062c9.648438 0 17.5 7.851562 17.5 17.5s-7.851562 17.5-17.5 17.5h-31.539062c-26.46875 0-48 21.53125-48 48v42h-1.625c-23.578125 0-46.246094-6.058594-65.550781-17.523438-4.140625-2.457031-8.425781-4.601562-12.824219-6.445312v-24.03125c0-4.417969-3.582031-8-8-8h-64c-4.417969 0-8 3.582031-8 8v24.449219c-37.386719 16.335937-64 54.671875-64 98.410156v173.140625c0 36.539062 32.523438 56 56 56 1.410156 0 2.898438-.066406 4.449219-.207031 22.398437-1.992188 41.371093-17.632813 48.339843-39.847657l21.535157-68.632812c11.960937 14.242188 30.148437 22.355469 50.34375 22.355469 21.195312 0 38.417969-7.027344 51.332031-20.914063 12.914062 13.886719 30.136719 20.914063 51.332031 20.914063 20.148438 0 38.308594-8.082031 50.269531-22.269531l21.417969 69.621093c7.144531 23.222657 28.265625 38.886719 52.980469 38.980469 23.476562 0 56-19.460938 56-56v-173.152344c0-43.730468-26.613281-82.066406-64-98.402344zm-64-16.445312h48v10.902344c-6.507812-1.613282-13.242188-2.582032-20.136719-2.832032-9.445312-.335937-18.800781.640626-27.863281 2.792969zm-256 0h48v10.84375c-9.035156-2.148438-18.378906-3.121094-27.863281-2.773438-6.894531.25-13.628907 1.21875-20.136719 2.832032zm368 288c0 28.265625-26.050781 40-40.355469 40-17.257812-.066406-32.257812-11.191406-37.332031-27.683594l-22.289062-72.445312c-1.589844-5.164063-5.859376-8.960938-11.144532-9.914063-.867187-.15625-1.734375-.230469-2.59375-.230469-4.511718 0-8.820312 2.097657-11.664062 5.800782-8.84375 11.527344-23.167969 18.140625-39.289063 18.140625-19.742187 0-34.382812-7.269531-44.757812-22.226563-2.992188-4.3125-10.15625-4.3125-13.148438 0-10.375 14.957032-25.015625 22.226563-44.757812 22.226563-15.921875 0-30.628907-6.808594-39.34375-18.210938-3.371094-4.40625-8.820313-6.546875-14.210938-5.59375-5.277343.933594-9.558593 4.707031-11.171875 9.851563l-22.417968 71.441406c-4.949219 15.769531-18.808594 27.304688-34.496094 28.699219-1.058594.09375-2.070313.144531-3.027344.144531-13.949219 0-40-11.734375-40-40v-173.140625c0-48.363281 38.003906-89.09375 84.722656-90.796875 16.828125-.636719 33.480469 3.585938 47.929688 12.171875 21.777344 12.929687 47.269531 19.765625 73.722656 19.765625h19.25c26.453125 0 51.945312-6.835938 73.722656-19.765625 4.839844-2.875 9.9375-5.21875 15.1875-7.097656.3125-.105469.613282-.195313.90625-.339844 10.160156-3.507813 20.929688-5.15625 31.835938-4.734375 46.71875 1.703125 84.722656 42.429688 84.722656 90.785156zm0 0" fill="#757575"/><path d="m184 261c-17.644531 0-32 14.355469-32 32s14.355469 32 32 32 32-14.355469 32-32-14.355469-32-32-32zm0 48c-8.824219 0-16-7.175781-16-16s7.175781-16 16-16 16 7.175781 16 16-7.175781 16-16 16zm0 0" fill="#757575"/><path d="m280 261c-17.644531 0-32 14.355469-32 32s14.355469 32 32 32 32-14.355469 32-32-14.355469-32-32-32zm0 48c-8.824219 0-16-7.175781-16-16s7.175781-16 16-16 16 7.175781 16 16-7.175781 16-16 16zm0 0" fill="#757575"/><path d="m216 205h-22c-4.417969 0-8 3.582031-8 8s3.582031 8 8 8h22c4.417969 0 8-3.582031 8-8s-3.582031-8-8-8zm0 0" fill="#757575"/><path d="m270 221c4.417969 0 8-3.582031 8-8s-3.582031-8-8-8h-22c-4.417969 0-8 3.582031-8 8s3.582031 8 8 8zm0 0" fill="#757575"/></svg>
