<?xml version="1.0"?>
<svg xmlns="http://www.w3.org/2000/svg" height="512px" viewBox="-48 0 480 480" width="512px"><path d="m40 480h304c22.082031-.027344 39.972656-17.917969 40-40v-400c-.027344-22.082031-17.917969-39.9726562-40-40h-304c-22.082031.0273438-39.9726562 17.917969-40 40v400c.0273438 22.082031 17.917969 39.972656 40 40zm-24-440c0-13.253906 10.746094-24 24-24h304c13.253906 0 24 10.746094 24 24v400c0 13.253906-10.746094 24-24 24h-304c-13.253906 0-24-10.746094-24-24zm0 0" fill="#757575"/><path d="m56 352c.027344 22.082031 17.917969 39.972656 40 40h192c22.082031-.027344 39.972656-17.917969 40-40v-224c-.027344-22.082031-17.917969-39.972656-40-40h-192c-22.082031.027344-39.972656 17.917969-40 40zm256-90.832031-17.335938-5.335938c1.78125-10.480469 1.78125-21.183593 0-31.664062l17.335938-5.335938zm-240-133.167969c0-13.253906 10.746094-24 24-24h192c13.253906 0 24 10.746094 24 24v74.097656l-20.894531 6.398438c-15.527344-48.882813-64.367188-79.148438-115.050781-71.292969-50.683594 7.855469-88.070313 51.484375-88.070313 102.773437 0 51.289063 37.386719 94.917969 88.070313 102.773438 50.683593 7.855469 99.523437-22.414062 115.050781-71.292969l20.894531 6.398438v74.144531c0 13.253906-10.746094 24-24 24h-192c-13.253906 0-24-10.746094-24-24zm120 80c-16.347656-.078125-30.121094 12.179688-31.949219 28.425781-1.824219 16.242188 8.886719 31.253907 24.839844 34.808594 15.957031 3.554687 32.027344-5.488281 37.269531-20.96875l53.648438 16.503906c-13.191406 41.316407-54.523438 66.859375-97.375 60.183594-42.855469-6.679687-74.457032-43.582031-74.457032-86.953125s31.601563-80.273438 74.457032-86.953125c42.851562-6.675781 84.183594 18.867187 97.375 60.183594l-53.648438 16.503906c-4.367187-12.949219-16.492187-21.6875-30.160156-21.734375zm16 32c0 8.835938-7.164062 16-16 16s-16-7.164062-16-16 7.164062-16 16-16 16 7.164062 16 16zm35.199219 0 36-11.078125c1.035156 7.347656 1.035156 14.808594 0 22.15625zm0 0" fill="#757575"/><path d="m48 48h16v-16h-32v32h16zm0 0" fill="#757575"/><path d="m336 64h16v-32h-32v16h16zm0 0" fill="#757575"/><path d="m336 432h-16v16h32v-32h-16zm0 0" fill="#757575"/><path d="m64 448v-16h-16v-16h-16v32zm0 0" fill="#757575"/></svg>
