<?xml version="1.0"?>
<svg xmlns="http://www.w3.org/2000/svg" height="512px" viewBox="0 -12 480 480" width="512px"><path d="m392 32h-304c-4.417969 0-8 3.582031-8 8v200c0 4.417969 3.582031 8 8 8h304c4.417969 0 8-3.582031 8-8v-200c0-4.417969-3.582031-8-8-8zm-8 200h-288v-184h288zm0 0" fill="#757575"/><path d="m479.585938 413.472656-47.585938-142.761718v-262.710938c0-4.417969-3.582031-8-8-8h-368c-4.417969 0-8 3.582031-8 8v262.710938l-47.585938 142.761718c-.210937.828125-.3476558 1.675782-.414062 2.527344v16c0 13.253906 10.746094 24 24 24h432c13.253906 0 24-10.746094 24-24v-16c-.066406-.851562-.203125-1.699219-.414062-2.527344zm-415.585938-397.472656h352v248h-352zm-2.230469 264h356.460938l42.664062 128h-441.789062zm402.230469 152c0 4.417969-3.582031 8-8 8h-432c-4.417969 0-8-3.582031-8-8v-8h448zm0 0" fill="#757575"/><path d="m295.199219 332.425781c-1.359375-2.726562-4.152344-4.441406-7.199219-4.425781h-96c-3.03125 0-5.804688 1.710938-7.160156 4.425781l-24 48c-1.238282 2.480469-1.105469 5.425781.351562 7.78125 1.460938 2.359375 4.035156 3.792969 6.808594 3.792969h144c2.78125.015625 5.367188-1.414062 6.835938-3.773438 1.46875-2.363281 1.605468-5.316406.363281-7.800781zm-114.253907 43.574219 16-32h86.109376l16 32zm0 0" fill="#757575"/><path d="m272 112h16v16h-16zm0 0" fill="#757575"/><path d="m288 144h16v16h-16zm0 0" fill="#757575"/></svg>
