<?xml version="1.0"?>
<svg xmlns="http://www.w3.org/2000/svg" height="512px" viewBox="0 -16 480 480" width="512px"><path d="m432 0h-384c-26.5.0273438-47.9726562 21.5-48 48v352c.0273438 26.5 21.5 47.972656 48 48h384c26.5-.027344 47.972656-21.5 48-48v-352c-.027344-26.5-21.5-47.9726562-48-48zm32 400c0 17.671875-14.328125 32-32 32h-384c-17.671875 0-32-14.328125-32-32v-352c0-17.671875 14.328125-32 32-32h384c17.671875 0 32 14.328125 32 32zm0 0" fill="#757575"/><path d="m264 81.960938v-25.960938c0-13.253906-10.746094-24-24-24s-24 10.746094-24 24v25.976562c-82.71875 12.554688-141.785156 86.738282-135.492188 170.167969 6.296876 83.429688 75.824219 147.910157 159.492188 147.910157s153.195312-64.480469 159.492188-147.910157c6.292968-83.429687-52.773438-157.613281-135.492188-170.167969zm-32-25.960938c0-4.417969 3.582031-8 8-8s8 3.582031 8 8v160c0 4.417969-3.582031 8-8 8s-8-3.582031-8-8zm8 184c13.253906 0 24-10.746094 24-24v-85.367188c55.855469 12.253907 93.511719 64.617188 87.347656 121.46875-6.164062 56.851563-54.164062 99.929688-111.347656 99.929688s-105.183594-43.078125-111.347656-99.929688c-6.164063-56.851562 31.492187-109.214843 87.347656-121.46875v85.367188c0 13.253906 10.746094 24 24 24zm0 144c-74.839844.023438-137.210938-57.316406-143.472656-131.894531-6.261719-74.578125 45.675781-141.511719 119.472656-153.96875v16.261719c-64.851562 12.382812-109.648438 72.054687-103.429688 137.785156 6.214844 65.730468 61.40625 115.945312 127.429688 115.945312s121.214844-50.214844 127.429688-115.945312c6.21875-65.730469-38.578126-125.402344-103.429688-137.785156v-16.269532c73.820312 12.433594 125.78125 79.378906 119.519531 153.976563-6.261719 74.597656-68.660156 131.941406-143.519531 131.894531zm0 0" fill="#757575"/></svg>
