<?xml version="1.0"?>
<svg xmlns="http://www.w3.org/2000/svg" height="512px" viewBox="0 0 480 480" width="512px"><path d="m416 200h16v16h-16zm0 0" fill="#757575"/><path d="m384 200h16v16h-16zm0 0" fill="#757575"/><path d="m160 320h160v16h-160zm0 0" fill="#757575"/><path d="m144 352h192v16h-192zm0 0" fill="#757575"/><path d="m128 384h224v16h-224zm0 0" fill="#757575"/><path d="m120 424h240v16h-240zm0 0" fill="#757575"/><path d="m440 104h-56v-104h-288v104h-56c-22.082031.027344-39.9726562 17.917969-40 40v192c.0273438 22.082031 17.917969 39.972656 40 40h48.320312l-9.046874 104h321.453124l-9.046874-104h48.320312c22.082031-.027344 39.972656-17.917969 40-40v-192c-.027344-22.082031-17.917969-39.972656-40-40zm-328-88h256v152h-256zm-96 128c0-13.253906 10.746094-24 24-24h56v48h-80zm40 216h-16c-13.253906 0-24-10.746094-24-24v-88h40zm40.726562 104 14.609376-168h257.328124l14.609376 168zm311.273438-104h-17.710938l-6.953124-80h-286.671876l-6.953124 80h-17.710938v-112h336zm56-24c0 13.253906-10.746094 24-24 24h-16v-112h40zm0-104h-448v-48h448zm0-64h-80v-48h56c13.253906 0 24 10.746094 24 24zm0 0" fill="#757575"/></svg>
