<?xml version="1.0"?>
<svg xmlns="http://www.w3.org/2000/svg" height="512px" viewBox="-39 0 479 479.99643" width="512px"><path d="m391.1875.109375-190.6875 31.773437-190.691406-31.773437c-2.316406-.375-4.679688.277344-6.476563 1.78125-1.796875 1.519531-2.832031 3.753906-2.832031 6.105469v394.183594c-.003906 3.363281 2.101562 6.371093 5.261719 7.519531l192 69.808593c1.765625.652344 3.707031.652344 5.472656 0l192-69.808593c3.160156-1.148438 5.265625-4.15625 5.265625-7.519531v-394.183594c-.003906-2.351563-1.039062-4.582032-2.832031-6.101563s-4.164063-2.171875-6.480469-1.785156zm-6.6875 396.472656-184 66.902344-184-66.902344v-379.136719l182.6875 30.4375c.867188.144532 1.753906.144532 2.621094 0l182.691406-30.4375zm0 0" fill="#757575"/><path d="m41.683594 40.085938c-2.304688-.347657-4.644532.328124-6.40625 1.847656-1.765625 1.519531-2.777344 3.734375-2.777344 6.0625v328c0 3.402344 2.148438 6.429687 5.359375 7.550781l160 56h.117187c1.632813.566406 3.402344.566406 5.035157 0h.125l160-56c3.210937-1.121094 5.363281-4.148437 5.363281-7.550781v-328c0-2.328125-1.015625-4.542969-2.78125-6.0625-1.761719-1.519532-4.101562-2.195313-6.40625-1.847656l-158.8125 23.8125zm150.816406 380.628906-144-50.398438v-313.03125l144 21.597656v65.601563c-36.410156 4.105469-63.945312 34.875-64 71.511719v112c0 4.417968 3.578125 8 8 8h56zm0-100.71875h-48v-96h48zm-47.433594-112c3.957032-27.570313 27.578125-48.042969 55.433594-48.042969 27.851562 0 51.472656 20.472656 55.429688 48.042969zm111.433594 16v96h-48v-96zm-48-145.113282 144-21.597656v313.03125l-144 50.398438v-84.71875h56c4.417969 0 8-3.582032 8-8v-112c-.050781-36.644532-27.585938-67.421875-64-71.527344zm0 0" fill="#757575"/></svg>
