<?xml version="1.0"?>
<svg xmlns="http://www.w3.org/2000/svg" height="512px" viewBox="0 0 480.00746 480" width="512px"><path d="m8 328.007812h56v16c0 2.777344 1.441406 5.359376 3.808594 6.8125l208 128c2.46875 1.519532 5.566406 1.585938 8.09375.171876 2.53125-1.414063 4.097656-4.085938 4.097656-6.984376v-464c0-2.898437-1.566406-5.574218-4.097656-6.988281-2.527344-1.414062-5.625-1.347656-8.09375.171875l-208 128c-2.367188 1.453125-3.808594 4.035156-3.808594 6.816406v16h-56c-4.417969 0-8 3.578126-8 8v160c0 4.417969 3.582031 8 8 8zm72-187.53125 32-19.671874v119.203124c0 4.417969 3.582031 8 8 8s8-3.582031 8-8v-128c-.042969-.324218-.109375-.640624-.191406-.953124l144.191406-88.730469v435.363281l-192-118.152344zm-64 27.53125h48v144h-48zm0 0" fill="#757575"/><path d="m306.542969 338.148438c-3.234375 3.015624-3.414063 8.078124-.398438 11.3125 3.011719 3.234374 8.078125 3.414062 11.3125.402343 15.191407-14.144531 50.542969-53.175781 50.542969-109.855469 0-56.683593-35.351562-95.714843-50.542969-109.859374-3.234375-3.011719-8.300781-2.832032-11.3125.402343-3.015625 3.234375-2.835937 8.296875.398438 11.3125 13.664062 12.71875 45.457031 47.742188 45.457031 98.144531 0 50.398438-31.792969 85.421876-45.457031 98.140626zm0 0" fill="#757575"/><path d="m361.976562 362.75c-2.003906 2.132812-2.683593 5.191406-1.769531 7.976562.914063 2.78125 3.277344 4.839844 6.15625 5.367188 2.878907.53125 5.816407-.554688 7.660157-2.832031 31.957031-37.074219 49.671874-84.3125 49.976562-133.253907-.304688-48.945312-18.019531-96.183593-49.976562-133.257812-1.84375-2.273438-4.78125-3.363281-7.660157-2.832031-2.878906.527343-5.242187 2.585937-6.15625 5.371093-.914062 2.78125-.234375 5.839844 1.769531 7.972657 61.363282 70.324219 61.363282 175.164062 0 245.488281zm0 0" fill="#757575"/><path d="m419.425781 73.445312c-3.625 2.527344-4.511719 7.511719-1.984375 11.136719 30.777344 45.953125 47.003906 100.117188 46.558594 155.425781.445312 55.308594-15.78125 109.46875-46.558594 155.421876-1.707031 2.34375-2.011718 5.421874-.800781 8.054687s3.75 4.402344 6.636719 4.628906c2.886718.230469 5.675781-1.121093 7.28125-3.53125 32.632812-48.648437 49.859375-105.996093 49.441406-164.574219.417969-58.582031-16.808594-115.929687-49.441406-164.578124-2.527344-3.621094-7.511719-4.511719-11.132813-1.984376zm0 0" fill="#757575"/></svg>
