<?xml version="1.0"?>
<svg xmlns="http://www.w3.org/2000/svg" height="512px" viewBox="-40 0 480 480.01858" width="512px"><path d="m.0078125 200.019531c.1289065 91.917969 62.7968755 171.960938 151.9999995 194.136719v37.863281h-144v48h384v-48h-144v-37.863281c101.15625-25.011719 166.160157-123.496094 149.394532-226.335938-16.765625-102.84375-109.683594-175.582031-213.546875-167.167968-103.859375 8.417968-183.855469 95.164062-183.8476565 199.367187zm375.9999995 248v16h-352v-16zm-208-16v-34.59375c21.195313 3.457031 42.808594 3.457031 64 0v34.59375zm32-416c101.621094 0 184 82.378907 184 184 0 101.621094-82.378906 184-184 184-101.617187 0-184-82.378906-184-184 .117188-101.574219 82.429688-183.886719 184-184zm0 0" fill="#757575"/><path d="m200.007812 336.019531c75.113282 0 136-60.890625 136-136 0-75.113281-60.886718-136-136-136-75.109374 0-136 60.886719-136 136 .085938 75.074219 60.925782 135.914063 136 136zm0-256c66.277344 0 120 53.726563 120 120 0 66.273438-53.722656 120-120 120-66.273437 0-120-53.726562-120-120 .078126-66.242187 53.757813-119.925781 120-120zm0 0" fill="#757575"/><path d="m200.007812 304.019531c57.4375 0 104-46.5625 104-104s-46.5625-104-104-104-104 46.5625-104 104c.066407 57.410157 46.589844 103.933594 104 104zm0-192c48.601563 0 88 39.398438 88 88 0 48.601563-39.398437 88-88 88-48.597656 0-88-39.398437-88-88 .058594-48.578125 39.425782-87.945312 88-88zm0 0" fill="#757575"/><path d="m200.007812 240.019531c22.09375 0 40-17.910156 40-40 0-22.09375-17.90625-40-40-40-22.089843 0-40 17.90625-40 40 .027344 22.078125 17.921876 39.972657 40 40zm0-64c13.257813 0 24 10.746094 24 24 0 13.253907-10.742187 24-24 24-13.253906 0-24-10.746093-24-24 0-13.253906 10.746094-24 24-24zm0 0" fill="#757575"/><path d="m256.007812 336.019531h16v16h-16zm0 0" fill="#757575"/><path d="m288.007812 320.019531h16v16h-16zm0 0" fill="#757575"/></svg>
