<?xml version="1.0" encoding="iso-8859-1"?>
<!-- Generator: Adobe Illustrator 19.0.0, SVG Export Plug-In . SVG Version: 6.00 Build 0)  -->
<svg xmlns="http://www.w3.org/2000/svg" xmlns:xlink="http://www.w3.org/1999/xlink" version="1.1" id="Capa_1" x="0px" y="0px" viewBox="0 0 480 480" style="enable-background:new 0 0 480 480;" xml:space="preserve" width="512px" height="512px">
<g>
	<g>
		<g>
			<path d="M56,313.92l-6.584,9.536C44.36,330.776,0,395.816,0,424c0.035,30.913,25.087,55.965,56,56     c30.913-0.035,55.965-25.087,56-56c0-28.184-44.36-93.224-49.416-100.544L56,313.92z M56,464c-22.091,0-40-17.909-40-40     c0-15.472,22.4-54.752,40-81.656C73.6,369.248,96,408.52,96,424C96,446.091,78.091,464,56,464z" fill="#757575"/>
			<path d="M416,96V72h-48v48h-32c0-13.255-10.745-24-24-24h-48V48h72V24c0-13.255-10.745-24-24-24H168c-13.255,0-24,10.745-24,24     v24h72v48h-48c-13.255,0-24,10.745-24,24H72c-39.746,0.044-71.956,32.254-72,72v104h112v-56c0-4.418,3.582-8,8-8h24     c0,13.255,10.745,24,24,24h144c13.255,0,24-10.745,24-24h32v48h48v-24h64V96H416z M144,216h-24c-13.255,0-24,10.745-24,24v40H16     v-88c0.035-30.913,25.087-55.965,56-56h72V216z M160,32v-8c0-4.418,3.582-8,8-8h144c4.418,0,8,3.582,8,8v8H160z M248,48v48h-16     V48H248z M320,232c0,4.418-3.582,8-8,8H168c-4.418,0-8-3.582-8-8V120c0-4.418,3.582-8,8-8h144c4.418,0,8,3.582,8,8V232z M368,216     h-32v-80h32V216z M400,264h-16V88h16V264z M464,240h-48V112h48V240z" fill="#757575"/>
		</g>
	</g>
</g>
<g>
</g>
<g>
</g>
<g>
</g>
<g>
</g>
<g>
</g>
<g>
</g>
<g>
</g>
<g>
</g>
<g>
</g>
<g>
</g>
<g>
</g>
<g>
</g>
<g>
</g>
<g>
</g>
<g>
</g>
</svg>
