<?xml version="1.0"?>
<svg xmlns="http://www.w3.org/2000/svg" height="512px" viewBox="0 0 480 480.22201" width="512px"><path d="m479.558594 341.46875c-.070313-.175781-.113282-.351562-.183594-.527344-.070312-.175781-.054688-.199218-.105469-.296875l-48-96c-1.355469-2.710937-4.125-4.425781-7.160156-4.421875h-8v-187.058594c11.347656-12.863281 10.53125-32.386718-1.847656-44.257812-12.378907-11.875-31.921875-11.875-44.300781 0-12.378907 11.871094-13.195313 31.394531-1.851563 44.257812v187.058594h-256v-187.058594c11.347656-12.863281 10.53125-32.386718-1.847656-44.257812-12.378907-11.875-31.921875-11.875-44.300781 0-12.378907 11.871094-13.195313 31.394531-1.851563 44.257812v187.058594h-8c-3.03125-.003906-5.804687 1.710938-7.160156 4.421875l-48 96c-.046875.097657-.054688.203125-.101563.296875-.046875.097656-.113281.351563-.183594.527344-.261718.902344-.449218 1.820312-.554687 2.753906v128c0 4.417969 3.582031 8 8 8h464c4.417969 0 8-3.582031 8-8v-128c-.105469-.933594-.289063-1.851562-.550781-2.753906zm-87.449219-325.246094c8.839844 0 16 7.164063 16 16 0 8.835938-7.160156 16-16 16-8.835937 0-16-7.164062-16-16 0-8.835937 7.164063-16 16-16zm8 46.863282v177.136718h-16v-177.136718c5.226563 1.515624 10.777344 1.515624 16 0zm-312-46.863282c8.839844 0 16 7.164063 16 16 0 8.835938-7.160156 16-16 16-8.835937 0-16-7.164062-16-16 0-8.835937 7.164063-16 16-16zm8 46.863282v177.136718h-16v-177.136718c5.226563 1.515624 10.777344 1.515624 16 0zm-35.054687 193.136718h358.113281l40 80h-438.113281zm403.054687 208h-448v-112h448zm0 0" fill="#757575"/><path d="m40.109375 432.222656h64c4.417969 0 8-3.582031 8-8v-32c0-4.417968-3.582031-8-8-8h-64c-4.417969 0-8 3.582032-8 8v32c0 4.417969 3.582031 8 8 8zm8-32h48v16h-48zm0 0" fill="#757575"/><path d="m136.109375 416.222656h96c4.417969 0 8-3.582031 8-8 0-4.417968-3.582031-8-8-8h-96c-4.417969 0-8 3.582032-8 8 0 4.417969 3.582031 8 8 8zm0 0" fill="#757575"/><path d="m264.109375 432.222656c4.417969 0 8-3.582031 8-8v-32c0-4.417968-3.582031-8-8-8s-8 3.582032-8 8v32c0 4.417969 3.582031 8 8 8zm0 0" fill="#757575"/><path d="m296.109375 432.222656c4.417969 0 8-3.582031 8-8v-32c0-4.417968-3.582031-8-8-8s-8 3.582032-8 8v32c0 4.417969 3.582031 8 8 8zm0 0" fill="#757575"/><path d="m328.109375 432.222656c4.417969 0 8-3.582031 8-8v-32c0-4.417968-3.582031-8-8-8s-8 3.582032-8 8v32c0 4.417969 3.582031 8 8 8zm0 0" fill="#757575"/><path d="m360.109375 432.222656c4.417969 0 8-3.582031 8-8v-32c0-4.417968-3.582031-8-8-8s-8 3.582032-8 8v32c0 4.417969 3.582031 8 8 8zm0 0" fill="#757575"/><path d="m392.109375 432.222656c4.417969 0 8-3.582031 8-8v-32c0-4.417968-3.582031-8-8-8s-8 3.582032-8 8v32c0 4.417969 3.582031 8 8 8zm0 0" fill="#757575"/><path d="m424.109375 432.222656c4.417969 0 8-3.582031 8-8v-32c0-4.417968-3.582031-8-8-8s-8 3.582032-8 8v32c0 4.417969 3.582031 8 8 8zm0 0" fill="#757575"/></svg>
